<?xml version="1.0" encoding="utf-8"?>
<!-- Generator: Adobe Adobe Illustrator 24.2.0, SVG Export Plug-In . SVG Version: 6.00 Build 0)  -->
<svg version="1.1" id="Logo" xmlns="http://www.w3.org/2000/svg" xmlns:xlink="http://www.w3.org/1999/xlink" x="0px" y="0px"
	 width="2190px" height="700px" viewBox="0 0 2190 700" style="enable-background:new 0 0 2190 700;" xml:space="preserve">
<g id="Peach">
	<path d="M392.05,541.82c-15.21,9.13-34.71-4-51.79-3.17c-15.38,0.74-55.81,5.87-80.05-1.53c-27.31-8.33-99.29-20.89-132.54-96.31
		c-7.64-17.33-8.25-24.39-8.25-52.55c0-16.33,0.88-15.89,3.47-32.18c3.14-19.76,9.36-38.28,18.79-55.8
		c9.35-17.37,21.58-32.47,37.13-44.66c15.13-11.87,33.05-19.69,51.87-23.68c10.81-2.29,21.68-4.36,32.78-4.03
		c33.79,0.99,62.76,12.63,85.23,38.71c7.28,8.45,13.17,17.72,17.95,27.75c0.7,1.47,1.42,2.97,0.9,4.89
		c-2.91,0.74-4.19-1.36-5.53-3.18c-10.31-14.05-22.27-26.46-36.76-36.24c-15.6-10.53-32.59-17.45-51.52-18.91
		c-21.87-1.68-40.11,6.99-56.77,20.12c-10.71,8.44-20.28,17.93-28.07,29.18c-10.87,15.69-18.76,32.71-23.54,51.22
		c-3.35,12.98-6.41,26.12-7.27,39.41c-1.47,22.66-1.72,32.99,3.21,52.64c14.07,56.04,68.81,77.17,100.04,87.12
		c34.74,11.07,70.41-6.5,81.33-3.02c25.13,8.01,35.14,12.85,46.8,7.41c9.19-4.29,26.72-22.92,49.75-66.85
		c17.47-33.32,38.92-97.16,34.11-142.22c-2.56-23.97-18.61-64.18-41.95-91.4c-21.65-25.24-56.85-35.57-67.84-37.35
		c-11.08-1.8-22.17-0.28-32.87,4.3c-12.09,5.18-16.99,7.64-27,16.25c-12.24,10.52-16.84,10.14-16.84,10.14s-21.98,5.99-24.51-2.6
		c-0.65-2.21,3.12-6.32,4.59-7.73c12.25-11.74,20.38-18.9,36.51-25.17c14.33-5.58,40.81-13.26,53.12-13.59
		c97.51-2.56,155.64,120.51,146.4,180.35c-12.51,80.9-48.38,124.91-81.32,163.94C407.84,529.4,392.05,541.82,392.05,541.82z"/>
	<g>
		<path d="M288.78,127.17c-29.66,11.17-39.79,46.54-37.34,59.37c4.12,21.57,6.47,20.99,8.27,21.25c2.36,0.33,4.1-20.49,21.14-37.53
			c0.6-0.6,14.83-11.7,22.96-17.42c14.51-10.22-30.14,29.85-22.79,28.92c5.99-0.76,37.05-15.4,53.51-29.11
			c16.38-13.64,17.31-44.05,11.08-38.05C338.42,121.52,324.06,113.88,288.78,127.17z"/>
		<path d="M288.78,127.17c-29.66,11.17-39.79,46.54-37.34,59.37c4.12,21.57,6.47,20.99,8.27,21.25c2.36,0.33,4.1-20.49,21.14-37.53
			c0.6-0.6,14.83-11.7,22.96-17.42c14.51-10.22-30.14,29.85-22.79,28.92c5.99-0.76,37.05-15.4,53.51-29.11
			c16.38-13.64,17.31-44.05,11.08-38.05C338.42,121.52,324.06,113.88,288.78,127.17z"/>
	</g>
	<path d="M138.35,169.18c18.1-11.55,37.09-18.72,58.35-18.6c13,0.07,23,6.11,31.71,15.6c10.73,11.7,17.77,25.6,22.58,40.87
		c0.43,1.37,1.18,2.86-0.34,3.81c-1.44,0.9-2.39-0.38-3.46-1.34c-10.98-9.9-16.7-13.07-32.74-15.93c-2.74-0.49-26.2-3.37-23-2.12
		c13.5,5.25,42.44,9.49,54.64,24.91c3.02,3.82-4.2,1.12-10.97,1.71c-8.57,0.75-16.18,8.38-24.52,10.93
		c-9.24,2.82-18.66,3.59-28.08,3.21c-10.35-0.42-20.69-1.67-30.9-4.03c-15.62-3.61-28.53-11.7-38.95-24.48
		c-5.21-6.39-9.86-13.2-14.67-19.91c-0.89-1.24-1.87-2.47-1.6-4.67C110.73,178.16,125.08,176.7,138.35,169.18z"/>
</g>
<g id="conee_-_font:_Joly_Headline">
	<path d="M516.17,417.3c0-32.86,22.13-58.78,55.2-58.78c19,0,34.42,8.71,34.42,17.88c0,6.03-6.7,11.84-12.74,11.84
		c-11.84,0-8.94-23.24-25.48-23.24c-13.19,0-31.29,14.3-31.29,45.15c0,28.16,14.98,46.26,36.88,46.26
		c17.43,0,27.05-11.85,31.07-17.21l4.47,2.68c-1.56,3.8-14.75,27.27-44.25,27.27C537.63,469.15,516.17,449.7,516.17,417.3z"/>
	<path d="M620.77,415.06c0-33.97,22.12-56.54,50.06-56.54c25.26,0,49.62,18.55,49.62,54.31c0,33.97-22.12,56.32-50.06,56.32
		C645.13,469.15,620.77,450.82,620.77,415.06z M671.05,462.66c16.54,0,28.38-14.75,28.38-47.38c0-29.28-9.83-50.29-28.83-50.29
		c-16.09,0-28.83,14.53-28.83,47.38C641.78,441.43,651.61,462.66,671.05,462.66z"/>
	<path d="M798.89,459.31l9.16-0.89c6.48-0.89,7.6-1.79,7.6-11.17c0.22-8.04,0.22-12.29,0.22-16.31v-34.42
		c0-8.94,0-25.92-16.76-25.92c-11.84,0-23.02,9.39-29.5,16.31v49.17c0,20.11,1.56,21.9,9.61,22.79l7.37,1.12v4.69h-52.74
		c-0.45-1.34-0.45-3.35,0.22-5.36l9.16-0.89c6.48-0.89,7.6-1.79,7.6-11.17c0.22-5.14,0.22-12.29,0.22-16.31v-27.27
		c0-9.83,0-14.08-0.22-23.47c0-3.58-0.22-5.14-2.68-5.14l-13.63-2.23l-0.22-4.25l35.31-8.94v18.55h0.89
		c5.36-5.81,18.1-19.67,37.32-19.67c19,0,26.6,13.85,26.6,31.29v46.26c0,20.11,1.56,21.9,9.61,22.79l7.38,1.12v4.69h-52.75
		C798.22,463.34,798.22,461.32,798.89,459.31z"/>
	<path d="M863.26,415.28c0-32.41,19.67-56.77,50.06-56.77c25.03,0,40.68,17.21,37.55,42.24h-67.05c-0.22,2.23-0.22,4.69-0.22,7.15
		c0,30.4,14.53,48.5,36.43,48.5c14.3,0,25.25-8.27,31.29-17.21l4.69,2.68c-4.92,9.39-19,27.27-44.48,27.27
		C883.15,469.15,863.26,447.47,863.26,415.28z M928.74,393.6c2.46,0,3.13-1.12,3.13-3.8c-0.22-14.97-8.27-25.03-20.78-25.03
		c-14.08,0-23.47,11.4-26.37,29.73L928.74,393.6z"/>
	<path d="M966.06,415.28c0-32.41,19.67-56.77,50.06-56.77c25.03,0,40.68,17.21,37.55,42.24h-67.05c-0.22,2.23-0.22,4.69-0.22,7.15
		c0,30.4,14.53,48.5,36.43,48.5c14.3,0,25.25-8.27,31.29-17.21l4.69,2.68c-4.92,9.39-19,27.27-44.48,27.27
		C985.96,469.15,966.06,447.47,966.06,415.28z M1031.55,393.6c2.46,0,3.13-1.12,3.13-3.8c-0.22-14.97-8.27-25.03-20.78-25.03
		c-14.08,0-23.47,11.4-26.37,29.73L1031.55,393.6z"/>
</g>
<g id="CPA_x2C__LLC_-_font:_Joly_Headline">
	<path d="M1123.43,401.06c0-51.63,35.54-75.76,72.41-75.76c19.89,0,33.75,7.6,39.34,7.6c3.58,0,5.81-2.68,7.82-7.15l5.59,0.67
		c1.34,25.93,2.01,40.01,3.58,57.21l-6.03,1.56c-5.14-29.05-18.1-51.85-46.26-51.85c-26.37,0-46.26,23.02-46.26,64.59
		c0,44.92,23.02,65.93,48.5,65.93c20.11,0,37.99-11.85,48.5-28.39l6.26,3.8c-9.83,16.09-30.17,36.88-63.25,36.88
		C1152.27,476.15,1123.43,447.77,1123.43,401.06z"/>
	<path d="M1271.39,465.64l11.85-0.89c8.71-0.89,10.06-1.79,10.06-11.17c0.22-9.61,0.22-16.76,0.22-24.81v-69.73
		c0-20.11-2.01-21.9-12.29-22.8l-9.61-1.12l-0.22-5.36h38.44c9.61,0,26.82-0.67,34.42-0.67c38.22,0,51.85,16.98,51.85,38.66
		c0,26.82-20.79,43.81-50.96,43.81c-9.61,0-17.43-1.79-23.02-4.02v34.87c0,20.11,2.01,21.9,13.18,22.8l10.28,1.12l0.22,5.36h-74.87
		C1270.49,470.34,1270.49,467.66,1271.39,465.64z M1339.78,403.74c21.23,0,26.82-16.99,26.82-34.42c0-22.57-9.39-32.63-27.49-32.63
		c-5.81,0-11.4,0-16.98,0.22v63.25C1327.04,402.17,1333.52,403.74,1339.78,403.74z"/>
	<path d="M1471.42,465.87l14.3-1.34c4.25-0.22,5.36-1.56,4.02-5.59l-16.09-44.92h-46.26l-6.26,17.21
		c-10.73,28.16-9.83,32.63,3.58,33.52l10.28,0.67v6.26h-55.65c-0.45-1.79-0.22-4.25,0.22-5.81l10.28-1.12
		c5.36-0.67,9.61-2.01,17.88-23.02l39.34-102.14l-1.34-4.02c8.04-2.9,16.09-6.48,24.14-10.28l49.62,129.4
		c2.9,7.6,5.14,9.16,12.07,9.83l9.39,0.89v6.26h-69.73C1470.75,469.89,1470.97,467.43,1471.42,465.87z M1470.75,405.97l-19.89-55.87
		l-20.34,55.87H1470.75z"/>
	<path d="M1584.28,481.96c0-6.7-3.13-8.27-5.36-8.27c-4.02,0-6.7,4.25-12.74,4.25c-7.15,0-13.41-5.59-13.41-14.53
		c0-9.39,7.15-16.98,18.77-16.98c14.53,0,23.02,12.07,23.02,26.82c0,21.68-17.43,37.77-29.28,47.6l-4.25-4.47
		C1571.54,507.21,1584.28,495.82,1584.28,481.96z"/>
	<path d="M1742.96,471.68h-74.2c-0.45-1.34-0.45-4.02,0.45-6.03l11.85-0.89c8.71-0.89,10.06-1.79,10.06-11.17
		c0.22-10.28,0.22-18.32,0.22-27.04v-67.49c0-20.11-2.01-21.9-12.29-22.8l-9.61-1.12l-0.22-5.36h73.31
		c0.45,1.12,0.45,4.02-0.45,6.03l-11.85,0.89c-8.94,0.89-10.06,1.79-10.06,11.17c-0.22,10.28-0.22,18.32-0.22,27.04v89.17
		l32.63-0.67c23.91-0.45,29.05-9.61,38.66-41.35l5.81,1.34c-3.35,20.56-5.14,34.42-6.71,49.62
		C1775.82,471.68,1761.51,471.68,1742.96,471.68z"/>
	<path d="M1881.53,471.68h-74.2c-0.45-1.34-0.45-4.02,0.45-6.03l11.85-0.89c8.71-0.89,10.06-1.79,10.06-11.17
		c0.22-10.28,0.22-18.32,0.22-27.04v-67.49c0-20.11-2.01-21.9-12.29-22.8l-9.61-1.12l-0.22-5.36h73.31
		c0.45,1.12,0.45,4.02-0.45,6.03l-11.85,0.89c-8.94,0.89-10.06,1.79-10.06,11.17c-0.22,10.28-0.22,18.32-0.22,27.04v89.17
		l32.63-0.67c23.91-0.45,29.05-9.61,38.66-41.35l5.81,1.34c-3.35,20.56-5.14,34.42-6.71,49.62
		C1914.38,471.68,1900.08,471.68,1881.53,471.68z"/>
	<path d="M1950.36,401.06c0-51.63,35.54-75.76,72.41-75.76c19.89,0,33.75,7.6,39.34,7.6c3.57,0,5.81-2.68,7.82-7.15l5.59,0.67
		c1.34,25.93,2.01,40.01,3.58,57.21l-6.03,1.56c-5.14-29.05-18.1-51.85-46.26-51.85c-26.37,0-46.26,23.02-46.26,64.59
		c0,44.92,23.02,65.93,48.5,65.93c20.11,0,37.99-11.85,48.5-28.39l6.26,3.8c-9.83,16.09-30.17,36.88-63.25,36.88
		C1979.19,476.15,1950.36,447.77,1950.36,401.06z"/>
</g>
</svg>
