<?xml version="1.0" encoding="utf-8"?>
<!-- Generator: Adobe Adobe Illustrator 24.2.0, SVG Export Plug-In . SVG Version: 6.00 Build 0)  -->
<svg version="1.1" id="Logo" xmlns="http://www.w3.org/2000/svg" xmlns:xlink="http://www.w3.org/1999/xlink" x="0px" y="0px"
	 width="2190px" height="700px" viewBox="0 0 2190 700" style="enable-background:new 0 0 2190 700;" xml:space="preserve">
<g id="conee_-_font:_Joly_Headline">
	<path d="M516.17,417.3c0-32.86,22.13-58.78,55.2-58.78c19,0,34.42,8.71,34.42,17.88c0,6.03-6.7,11.84-12.74,11.84
		c-11.84,0-8.94-23.24-25.48-23.24c-13.19,0-31.29,14.3-31.29,45.15c0,28.16,14.98,46.26,36.88,46.26
		c17.43,0,27.05-11.85,31.07-17.21l4.47,2.68c-1.56,3.8-14.75,27.27-44.25,27.27C537.63,469.15,516.17,449.7,516.17,417.3z"/>
	<path d="M620.77,415.06c0-33.97,22.12-56.54,50.06-56.54c25.26,0,49.62,18.55,49.62,54.31c0,33.97-22.12,56.32-50.06,56.32
		C645.13,469.15,620.77,450.82,620.77,415.06z M671.05,462.66c16.54,0,28.38-14.75,28.38-47.38c0-29.28-9.83-50.29-28.83-50.29
		c-16.09,0-28.83,14.53-28.83,47.38C641.78,441.43,651.61,462.66,671.05,462.66z"/>
	<path d="M798.89,459.31l9.16-0.89c6.48-0.89,7.6-1.79,7.6-11.17c0.22-8.04,0.22-12.29,0.22-16.31v-34.42
		c0-8.94,0-25.92-16.76-25.92c-11.84,0-23.02,9.39-29.5,16.31v49.17c0,20.11,1.56,21.9,9.61,22.79l7.37,1.12v4.69h-52.74
		c-0.45-1.34-0.45-3.35,0.22-5.36l9.16-0.89c6.48-0.89,7.6-1.79,7.6-11.17c0.22-5.14,0.22-12.29,0.22-16.31v-27.27
		c0-9.83,0-14.08-0.22-23.47c0-3.58-0.22-5.14-2.68-5.14l-13.63-2.23l-0.22-4.25l35.31-8.94v18.55h0.89
		c5.36-5.81,18.1-19.67,37.32-19.67c19,0,26.6,13.85,26.6,31.29v46.26c0,20.11,1.56,21.9,9.61,22.79l7.38,1.12v4.69h-52.75
		C798.22,463.34,798.22,461.32,798.89,459.31z"/>
	<path d="M863.26,415.28c0-32.41,19.67-56.77,50.06-56.77c25.03,0,40.68,17.21,37.55,42.24h-67.05c-0.22,2.23-0.22,4.69-0.22,7.15
		c0,30.4,14.53,48.5,36.43,48.5c14.3,0,25.25-8.27,31.29-17.21l4.69,2.68c-4.92,9.39-19,27.27-44.48,27.27
		C883.15,469.15,863.26,447.47,863.26,415.28z M928.74,393.6c2.46,0,3.13-1.12,3.13-3.8c-0.22-14.97-8.27-25.03-20.78-25.03
		c-14.08,0-23.47,11.4-26.37,29.73L928.74,393.6z"/>
	<path d="M966.06,415.28c0-32.41,19.67-56.77,50.06-56.77c25.03,0,40.68,17.21,37.55,42.24h-67.05c-0.22,2.23-0.22,4.69-0.22,7.15
		c0,30.4,14.53,48.5,36.43,48.5c14.3,0,25.25-8.27,31.29-17.21l4.69,2.68c-4.92,9.39-19,27.27-44.48,27.27
		C985.96,469.15,966.06,447.47,966.06,415.28z M1031.55,393.6c2.46,0,3.13-1.12,3.13-3.8c-0.22-14.97-8.27-25.03-20.78-25.03
		c-14.08,0-23.47,11.4-26.37,29.73L1031.55,393.6z"/>
</g>
<g id="CPA_x2C__LLC_-_font:_Joly_Headline">
	<path d="M1123.43,401.06c0-51.63,35.54-75.76,72.41-75.76c19.89,0,33.75,7.6,39.34,7.6c3.58,0,5.81-2.68,7.82-7.15l5.59,0.67
		c1.34,25.93,2.01,40.01,3.58,57.21l-6.03,1.56c-5.14-29.05-18.1-51.85-46.26-51.85c-26.37,0-46.26,23.02-46.26,64.59
		c0,44.92,23.02,65.93,48.5,65.93c20.11,0,37.99-11.85,48.5-28.39l6.26,3.8c-9.83,16.09-30.17,36.88-63.25,36.88
		C1152.27,476.15,1123.43,447.77,1123.43,401.06z"/>
	<path d="M1271.39,465.64l11.85-0.89c8.71-0.89,10.06-1.79,10.06-11.17c0.22-9.61,0.22-16.76,0.22-24.81v-69.73
		c0-20.11-2.01-21.9-12.29-22.8l-9.61-1.12l-0.22-5.36h38.44c9.61,0,26.82-0.67,34.42-0.67c38.22,0,51.85,16.98,51.85,38.66
		c0,26.82-20.79,43.81-50.96,43.81c-9.61,0-17.43-1.79-23.02-4.02v34.87c0,20.11,2.01,21.9,13.18,22.8l10.28,1.12l0.22,5.36h-74.87
		C1270.49,470.34,1270.49,467.66,1271.39,465.64z M1339.78,403.74c21.23,0,26.82-16.99,26.82-34.42c0-22.57-9.39-32.63-27.49-32.63
		c-5.81,0-11.4,0-16.98,0.22v63.25C1327.04,402.17,1333.52,403.74,1339.78,403.74z"/>
	<path d="M1471.42,465.87l14.3-1.34c4.25-0.22,5.36-1.56,4.02-5.59l-16.09-44.92h-46.26l-6.26,17.21
		c-10.73,28.16-9.83,32.63,3.58,33.52l10.28,0.67v6.26h-55.65c-0.45-1.79-0.22-4.25,0.22-5.81l10.28-1.12
		c5.36-0.67,9.61-2.01,17.88-23.02l39.34-102.14l-1.34-4.02c8.04-2.9,16.09-6.48,24.14-10.28l49.62,129.4
		c2.9,7.6,5.14,9.16,12.07,9.83l9.39,0.89v6.26h-69.73C1470.75,469.89,1470.97,467.43,1471.42,465.87z M1470.75,405.97l-19.89-55.87
		l-20.34,55.87H1470.75z"/>
	<path d="M1584.28,481.96c0-6.7-3.13-8.27-5.36-8.27c-4.02,0-6.7,4.25-12.74,4.25c-7.15,0-13.41-5.59-13.41-14.53
		c0-9.39,7.15-16.98,18.77-16.98c14.53,0,23.02,12.07,23.02,26.82c0,21.68-17.43,37.77-29.28,47.6l-4.25-4.47
		C1571.54,507.21,1584.28,495.82,1584.28,481.96z"/>
	<path d="M1742.96,471.68h-74.2c-0.45-1.34-0.45-4.02,0.45-6.03l11.85-0.89c8.71-0.89,10.06-1.79,10.06-11.17
		c0.22-10.28,0.22-18.32,0.22-27.04v-67.49c0-20.11-2.01-21.9-12.29-22.8l-9.61-1.12l-0.22-5.36h73.31
		c0.45,1.12,0.45,4.02-0.45,6.03l-11.85,0.89c-8.94,0.89-10.06,1.79-10.06,11.17c-0.22,10.28-0.22,18.32-0.22,27.04v89.17
		l32.63-0.67c23.91-0.45,29.05-9.61,38.66-41.35l5.81,1.34c-3.35,20.56-5.14,34.42-6.71,49.62
		C1775.82,471.68,1761.51,471.68,1742.96,471.68z"/>
	<path d="M1881.53,471.68h-74.2c-0.45-1.34-0.45-4.02,0.45-6.03l11.85-0.89c8.71-0.89,10.06-1.79,10.06-11.17
		c0.22-10.28,0.22-18.32,0.22-27.04v-67.49c0-20.11-2.01-21.9-12.29-22.8l-9.61-1.12l-0.22-5.36h73.31
		c0.45,1.12,0.45,4.02-0.45,6.03l-11.85,0.89c-8.94,0.89-10.06,1.79-10.06,11.17c-0.22,10.28-0.22,18.32-0.22,27.04v89.17
		l32.63-0.67c23.91-0.45,29.05-9.61,38.66-41.35l5.81,1.34c-3.35,20.56-5.14,34.42-6.71,49.62
		C1914.38,471.68,1900.08,471.68,1881.53,471.68z"/>
	<path d="M1950.36,401.06c0-51.63,35.54-75.76,72.41-75.76c19.89,0,33.75,7.6,39.34,7.6c3.57,0,5.81-2.68,7.82-7.15l5.59,0.67
		c1.34,25.93,2.01,40.01,3.58,57.21l-6.03,1.56c-5.14-29.05-18.1-51.85-46.26-51.85c-26.37,0-46.26,23.02-46.26,64.59
		c0,44.92,23.02,65.93,48.5,65.93c20.11,0,37.99-11.85,48.5-28.39l6.26,3.8c-9.83,16.09-30.17,36.88-63.25,36.88
		C1979.19,476.15,1950.36,447.77,1950.36,401.06z"/>
</g>
<g id="Peach_1_">
	<path d="M402.41,512.73c-15.16,10.87-23.07,14.77-43.78,22.38c-16.98,6.23-32.17,8.98-50.02,9.85
		c-16.08,0.78-44.91-2.52-60.47-6.53c-13.28-3.43-22.92-6.95-35.39-12.79c-9.95-4.66-31.26-12.57-51.28-33.91
		c-15.21-16.2-17.61-16.17-30.65-45.74c-7.98-18.11-8.62-25.49-8.62-54.93c0-17.07,0.92-16.61,3.62-33.63
		c3.28-20.65,9.79-40.01,19.64-58.32c9.76-18.13,22.52-33.89,38.74-46.63c15.93-12.51,34.03-20.5,53.83-24.71
		c11.45-2.44,22.95-4.66,34.71-4.31c35.31,1.03,65.59,13.2,89.08,40.46c7.61,8.84,13.77,18.52,18.76,29
		c0.73,1.54,1.49,3.1,0.95,5.11c-3.04,0.77-4.38-1.42-5.78-3.32c-10.78-14.69-23.27-27.65-38.42-37.88
		c-16.3-11-34.06-18.24-53.85-19.76c-22.85-1.76-41.92,7.31-59.33,21.03c-11.19,8.82-21.2,18.74-29.34,30.5
		c-11.36,16.4-19.61,34.19-24.6,53.53c-3.5,13.56-6.7,27.3-7.6,41.19c-1.54,23.68-1.8,34.48,3.36,55.02
		c4.12,16.4,8.4,24.58,15.24,33.25c10.33,13.1,23.34,25.33,36.98,33.72c13.19,8.12,27.01,14.99,41.66,19.98
		c12.15,4.14,24.56,7.67,37.59,7.49c8.95-0.12,17.94,0.84,26.85-0.77c13.01-2.36,25.46-6.08,36.58-13.64
		c12.3-8.37,24.72-16.47,34.73-27.77c12.01-13.55,22.77-27.99,31.96-43.55c12.49-21.15,19.95-44.24,26.49-67.82
		c7.17-25.86,8.24-52.06,7.64-78.55c-0.36-15.99-10.7-45.66-10.7-45.66c-5.62-16.71-11.99-25.59-23.08-39
		c-12.47-15.08-30.88-31.91-50.54-35.11c-11.58-1.88-23.17-0.29-34.35,4.5c-12.64,5.41-17.76,7.99-28.23,16.99
		c-12.79,10.99-17.61,10.59-17.61,10.59s-22.97,6.26-25.62-2.72c-0.68-2.31,3.27-6.61,4.8-8.08c12.81-12.27,21.3-19.75,38.16-26.31
		c14.98-5.83,27.02-8.93,39.9-9.27c12.89-0.34,25.45,1.12,37.97,4.83c19.95,5.9,35.69,14.71,50.85,28
		c13.76,12.07,21.2,23.87,28.76,36.57c10.02,16.84,15.03,30.55,19.98,49.19c3.42,12.86,5.04,35.08,4.29,46.72
		c-1.43,22.23-0.69,23.58-4.76,40.42c-6.9,28.54-11.21,39.71-20.54,58.29c-6.91,13.75-9.55,18.64-19.44,32.35
		c-10.01,13.87-25.57,30.26-31.93,35.98L402.41,512.73z"/>
	<path d="M116.5,148.73c21.94-12.46,44.67-19.73,69.62-18.3c15.25,0.87,26.63,8.57,36.27,20.23c11.88,14.38,19.31,31.12,24.03,49.34
		c0.42,1.63,1.21,3.43-0.63,4.46c-1.75,0.97-2.78-0.59-3.98-1.78c-12.29-12.29-18.81-16.36-37.46-20.68
		c-3.19-0.74-30.55-5.54-26.86-3.89c15.52,6.98,49.25,13.71,62.63,32.55c3.31,4.66-5,1.05-12.98,1.34
		c-10.1,0.37-19.5,8.86-29.44,11.35c-11.02,2.75-22.12,3.09-33.16,2.06c-12.13-1.13-24.18-3.21-36.02-6.6
		c-18.12-5.18-32.78-15.46-44.24-31.09c-5.73-7.82-10.78-16.1-16.01-24.26c-0.97-1.51-2.05-3.01-1.59-5.57
		C83.53,157.59,100.46,156.75,116.5,148.73z"/>
	<path d="M292.09,120.38c-31,11.67-41.59,48.64-39.03,62.06c4.31,22.55,6.77,21.94,8.64,22.21c2.46,0.35,4.29-21.41,22.1-39.23
		c0.62-0.62,15.5-12.23,24-18.21c15.17-10.68-31.5,31.2-23.82,30.22c6.26-0.8,38.72-16.09,55.92-30.42
		c17.12-14.26,18.1-46.04,11.58-39.77C343.97,114.48,328.97,106.5,292.09,120.38z"/>
</g>
</svg>
